<svg width="59" height="48" viewBox="0 0 59 48" fill="none" xmlns="http://www.w3.org/2000/svg">
<path d="M1.00228 16.0495C4.10458 4.29888 15.6768 1.29556 27.3719 3.98664C34.1259 5.54078 41.5605 -3.91655 50.1951 4.22184C61.8189 15.1776 59.4507 34.2311 52.3872 39.1914C43.163 45.6691 32.7457 39.6529 21.8662 45.5537C8.15553 52.9901 -3.23961 32.1165 1.00228 16.0495Z" fill="#FE705A"/>
<rect x="13.5687" y="14.7016" width="29.5249" height="20.0532" stroke="white" stroke-width="1.3745" stroke-linejoin="round"/>
<path d="M14.0103 13.6707L17.6142 11.2525H39.4123L42.7268 13.6707H14.0103Z" fill="white" stroke="white" stroke-width="0.687251" stroke-linejoin="round"/>
<path d="M26.2293 10.9342H30.5049L31.3316 15.2754H25.3304L26.2293 10.9342Z" fill="white"/>
<path d="M25.3304 18.659L31.3316 16.8714V15.2754H25.3304V18.659Z" fill="white"/>
<path fill-rule="evenodd" clip-rule="evenodd" d="M24.8143 22.632H20.2745C20.2312 22.632 20.1881 22.6331 20.1453 22.6351L20.1483 22.6322H16.5543C16.1082 22.644 15.9975 22.766 15.9868 23.1366V24.6499C15.9868 25.0188 17.0437 26.0041 17.5382 26.4651L17.6262 26.5474V27.8024C17.6262 29.265 18.8119 30.4506 20.2745 30.4506H22.9227C25.2907 30.4506 27.2104 28.531 27.2104 26.163V25.439C27.6764 25.2789 28.0223 25.2182 28.3418 25.2194C28.6631 25.2206 29.0106 25.2845 29.4806 25.4429V26.163C29.4806 28.531 31.4002 30.4506 33.7682 30.4506H36.4165C37.879 30.4506 39.0647 29.265 39.0647 27.8024V26.547L39.1526 26.465C39.6471 26.0039 40.7039 25.0186 40.7039 24.6497V23.1365C40.6932 22.7658 40.5826 22.6439 40.1364 22.632H36.5424L36.5456 22.6351C36.5028 22.6331 36.4598 22.632 36.4165 22.632H31.8766C31.086 22.632 30.3847 23.015 29.9484 23.6055C29.4055 23.4324 28.8885 23.3298 28.349 23.3278C27.8072 23.3258 27.2876 23.4252 26.7399 23.6019C26.3033 23.0134 25.6034 22.632 24.8143 22.632ZM19.0134 25.2803C19.0134 24.5838 19.578 24.0192 20.2745 24.0192H24.8143C25.3715 24.0192 25.8232 24.4709 25.8232 25.028V26.163C25.8232 27.7649 24.5246 29.0635 22.9227 29.0635H20.2745C19.578 29.0635 19.0134 28.4989 19.0134 27.8024V25.2803ZM37.6775 25.2803C37.6775 24.5838 37.1129 24.0192 36.4165 24.0192H31.8766C31.3194 24.0192 30.8678 24.4709 30.8678 25.0281V26.163C30.8678 27.7649 32.1663 29.0635 33.7682 29.0635H36.4165C37.1129 29.0635 37.6775 28.4989 37.6775 27.8024V25.2803Z" fill="white"/>
</svg>
