<svg width="81" height="70" viewBox="0 0 81 70" fill="none" xmlns="http://www.w3.org/2000/svg">
<path d="M40.6834 53.9727H17.9966L13.3617 68.3044C13.3099 68.5656 13.1623 68.798 12.9479 68.956C12.7335 69.114 12.4678 69.1861 12.203 69.1582H0.737656C0.0668125 69.1582 -0.116144 68.7923 0.0668134 68.0604L19.7042 11.5266C19.8872 10.9167 20.0702 10.2459 20.3141 9.51407C20.5595 8.20703 20.682 6.87988 20.68 5.54999C20.6617 5.39726 20.7019 5.24325 20.7923 5.11885C20.8828 4.99444 21.017 4.90883 21.1679 4.87915H36.9632C37.4511 4.87915 37.6951 5.06211 37.756 5.36704L60.0159 68.1824C60.1988 68.8533 60.0159 69.1582 59.406 69.1582H46.66C46.4444 69.179 46.2284 69.1231 46.05 69.0004C45.8715 68.8777 45.742 68.6961 45.6842 68.4873L40.6834 53.9727ZM21.5338 41.5926H37.0242C36.6583 40.3119 36.1704 38.7873 35.6215 37.2016C35.0727 35.616 34.5238 33.7864 33.9749 31.9569C33.4261 30.1273 32.8162 28.2367 32.2063 26.3462C31.5965 24.4556 31.0476 22.687 30.5597 20.9184C30.0718 19.1498 29.6449 17.6252 29.218 16.1615H29.0961C28.548 18.8196 27.8558 21.4458 27.0225 24.0287C26.1078 26.956 25.193 30.0053 24.2172 33.0546C23.3634 36.1649 22.4486 39.0312 21.5338 41.5926V41.5926Z" fill="#FE705A"/>
<path d="M73.311 15.3077C72.31 15.3296 71.3145 15.1521 70.3827 14.7857C69.4509 14.4192 68.6012 13.8711 67.8833 13.1732C66.486 11.6454 65.7418 9.63171 65.8098 7.56248C65.7737 6.55429 65.9506 5.54982 66.3289 4.61459C66.7072 3.67936 67.2784 2.83438 68.0052 2.13475C69.4711 0.749241 71.416 -0.0156169 73.433 0.000241769C75.8114 0.000241769 77.641 0.732072 78.9827 2.13475C80.3338 3.61349 81.0556 5.56038 80.9952 7.56248C81.0324 8.59288 80.8627 9.62027 80.4961 10.584C80.1295 11.5476 79.5734 12.4281 78.8607 13.1732C78.1421 13.9051 77.2749 14.4744 76.3175 14.8427C75.3601 15.2109 74.3349 15.3695 73.311 15.3077V15.3077ZM66.4806 68.2434V21.2843C66.4806 20.6744 66.7245 20.4305 67.2734 20.4305H79.3486C79.8975 20.4305 80.1414 20.7354 80.1414 21.2843V68.2434C80.1414 68.9142 79.8975 69.2191 79.3486 69.2191H67.3954C67.2672 69.2297 67.1383 69.2112 67.0183 69.165C66.8983 69.1187 66.7903 69.046 66.7023 68.9522C66.6144 68.8583 66.5488 68.7459 66.5104 68.6231C66.472 68.5004 66.4618 68.3706 66.4806 68.2434V68.2434Z" fill="#FE705A"/>
</svg>
