<svg width="85" height="85" viewBox="0 0 85 85" fill="none" xmlns="http://www.w3.org/2000/svg">
<path fill-rule="evenodd" clip-rule="evenodd" d="M19.55 2H65.45C75.143 2 83 9.857 83 19.55V65.45C83 75.143 75.143 83 65.45 83H19.55C9.857 83 2 75.143 2 65.45V19.55C2 9.857 9.857 2 19.55 2Z" stroke="#FE705A" stroke-width="3.125" stroke-miterlimit="10"/>
<path fill-rule="evenodd" clip-rule="evenodd" d="M58.2629 12.125H49.3732L56.7813 25.1424L40.4834 12.125H31.5937L39.7426 28.0364L22.7022 12.125H13.8125L22.7022 32.375L13.8125 72.875H22.7022L39.7426 29.4826L31.5937 72.875H40.4834L56.783 26.5886L49.3732 72.875H58.2629L74.5625 22.25L58.2629 12.125Z" fill="#FE705A"/>
</svg>
