<svg width="81" height="81" viewBox="0 0 81 81" fill="none" xmlns="http://www.w3.org/2000/svg">
<path fill-rule="evenodd" clip-rule="evenodd" d="M10.125 0H70.875C73.5603 0 76.1357 1.06674 78.0345 2.96554C79.9333 4.86435 81 7.43968 81 10.125V70.875C81 73.5603 79.9333 76.1357 78.0345 78.0345C76.1357 79.9333 73.5603 81 70.875 81H10.125C7.43968 81 4.86435 79.9333 2.96554 78.0345C1.06674 76.1357 0 73.5603 0 70.875V10.125C0 7.43968 1.06674 4.86435 2.96554 2.96554C4.86435 1.06674 7.43968 0 10.125 0ZM33.9547 64.3297C34.9041 63.3803 35.4375 62.0927 35.4375 60.75V15.1875C35.4375 13.8448 34.9041 12.5572 33.9547 11.6078C33.0053 10.6584 31.7177 10.125 30.375 10.125H15.1875C13.8448 10.125 12.5572 10.6584 11.6078 11.6078C10.6584 12.5572 10.125 13.8448 10.125 15.1875V60.75C10.125 62.0927 10.6584 63.3803 11.6078 64.3297C12.5572 65.2791 13.8448 65.8125 15.1875 65.8125H30.375C31.7177 65.8125 33.0053 65.2791 33.9547 64.3297ZM69.3922 44.0797C70.3416 43.1303 70.875 41.8427 70.875 40.5V15.1875C70.875 13.8448 70.3416 12.5572 69.3922 11.6078C68.4428 10.6584 67.1552 10.125 65.8125 10.125H50.625C49.2823 10.125 47.9947 10.6584 47.0453 11.6078C46.0959 12.5572 45.5625 13.8448 45.5625 15.1875V40.5C45.5625 41.8427 46.0959 43.1303 47.0453 44.0797C47.9947 45.0291 49.2823 45.5625 50.625 45.5625H65.8125C67.1552 45.5625 68.4428 45.0291 69.3922 44.0797Z" fill="#FE705A"/>
</svg>
